<svg width="31" height="31" viewBox="0 0 31 31" fill="none" xmlns="http://www.w3.org/2000/svg">
<path fill-rule="evenodd" clip-rule="evenodd" d="M16.9863 1.59245C16.887 0.875549 16.2594 0.322998 15.5 0.322998C14.6716 0.322998 14 0.98058 14 1.79175V14.0313H1.5L1.29646 14.0447C0.564308 14.142 0 14.7565 0 15.5001C0 16.3112 0.671573 16.9688 1.5 16.9688H14V29.2084L14.0137 29.4077C14.113 30.1246 14.7406 30.6772 15.5 30.6772C16.3284 30.6772 17 30.0196 17 29.2084V16.9688H29.5L29.7035 16.9554C30.4357 16.8582 31 16.2437 31 15.5001C31 14.6889 30.3284 14.0313 29.5 14.0313H17V1.79175L16.9863 1.59245Z" fill="#212121"/>
</svg>
